<?xml version="1.0" standalone="no"?><!DOCTYPE svg PUBLIC "-//W3C//DTD SVG 1.1//EN" "http://www.w3.org/Graphics/SVG/1.1/DTD/svg11.dtd"><svg t="1665295724750" class="icon" viewBox="0 0 1024 1024" version="1.1" xmlns="http://www.w3.org/2000/svg" p-id="1024" xmlns:xlink="http://www.w3.org/1999/xlink" width="200" height="200"><path d="M696.06 668.44c0 282.77-154.73 355.56-345.6 355.56S4.86 951.21 4.86 668.44 159.59 0 350.46 0s345.6 385.67 345.6 668.44z" fill="#25467A" p-id="1025"></path><path d="M600.05 903.12c-89.17-89.17-87.88-166.55 4.3-258.74 124.64-124.63 334.5-198.95 393.95-139.5 59.45 59.45-14.87 269.3-139.51 393.94-92.19 92.18-169.57 93.47-258.74 4.3z" fill="#25467A" p-id="1026"></path><path d="M636.26 866.92c-68.9-68.9-67.85-114.18 4.3-186.33 126.8-126.8 299.24-161.8 321.53-139.51s-12.71 194.73-139.51 321.53c-72.15 72.16-117.42 73.21-186.32 4.31z" fill="#F39A11" p-id="1027"></path><path d="M654.36 848.82c-58.6-58.6-57.76-88.07 4.3-150.12 112.95-112.95 251.33-142.05 283.97-138.14 3.91 32.64-34.5 30.5-147.45 143.45-62.06 62.05-82.22 203.41-140.82 144.81z" fill="#E77D15" p-id="1028"></path><path d="M350.46 998.4c-221.31 0-320-101.76-320-329.96 0-280.69 155.18-642.84 320-642.84s320 362.15 320 642.84c0 228.2-98.69 329.96-320 329.96z" fill="#25467A" p-id="1029"></path><path d="M350.46 972.8c-206.36 0-294.4-91.02-294.4-304.36 0-288.43 156.83-617.24 294.4-617.24s294.4 328.81 294.4 617.24c0 213.34-88.04 304.36-294.4 304.36z" fill="#F39A11" p-id="1030"></path><path d="M350.46 857.6c-41.69 0 9.51-89.6-28.89-128-38.4-38.4-214.31 16.48-214.31-61.16 0-286.34 153.88-566.04 243.2-566.04s243.2 279.71 243.2 566.04c0 184.55-65.91 189.16-243.2 189.16z" fill="#E77D15" p-id="1031"></path><path d="M524.8 668.42c0 81.41-9.22 140.42-30.34 180.74-7.3 1.54-14.85 2.82-23.04 3.84-15.87 2.05-33.66 3.2-53.12 3.84-6.66 0.26-13.57 0.38-20.61 0.51-14.85 0.26-30.46 0.26-47.23 0.26-41.73 0 9.47-89.6-28.93-128-6.53-6.53-16.9-10.24-29.82-12.54-7.68-1.41-16.26-2.18-25.47-2.56-19.71-1.02-41.98-0.38-63.49-0.77-8.83 0-17.41-0.26-25.6-0.9-0.64-13.95-1.02-28.8-1.02-44.42 0-282.62 107.52-558.72 171.78-565.76 0.9-0.13 1.66-0.26 2.56-0.26 0.9 0 1.66 0.13 2.56 0.26 64.25 7.04 171.77 283.13 171.77 565.76z" fill="#D87512" p-id="1032"></path><path d="M499.2 668.42c0 84.1-8.45 144.26-27.78 184.58-15.87 2.05-33.66 3.2-53.12 3.84-6.66 0.26-13.57 0.38-20.61 0.51-14.85 0.26-30.46 0.26-47.23 0.26-41.73 0 9.47-89.6-28.93-128-6.53-6.53-16.9-10.24-29.82-12.54-7.68-1.41-16.26-2.18-25.47-2.56-19.71-1.02-41.98-0.38-63.49-0.77-0.77-14.21-1.02-29.31-1.02-45.31 0-281.86 91.14-557.31 146.18-565.76 0.9-0.13 1.66-0.26 2.56-0.26 0.9 0 1.66 0.13 2.56 0.26 55.03 8.43 146.17 283.89 146.17 565.75z" fill="#E77D15" p-id="1033"></path><path d="M435.2 668.42c0 86.78-5.12 147.97-16.9 188.42-6.66 0.26-13.57 0.38-20.61 0.51-14.85 0.26-30.46 0.26-47.23 0.26-41.73 0 9.47-89.6-28.93-128-6.53-6.53-16.9-10.24-29.82-12.54-7.68-1.41-16.26-2.18-25.47-2.56-0.38-14.46-0.51-29.82-0.51-46.08 0-286.34 53.63-566.02 84.74-566.02s84.73 279.67 84.73 566.01z" fill="#D87512" p-id="1034"></path><path d="M409.6 668.42c0 87.17-3.58 148.61-11.9 188.93-14.85 0.26-30.46 0.26-47.23 0.26-41.73 0 9.47-89.6-28.93-128-6.53-6.53-16.9-10.24-29.82-12.54-0.26-15.23-0.38-31.49-0.38-48.64 0-286.34 37.38-566.02 59.14-566.02 21.74-0.01 59.12 279.67 59.12 566.01z" fill="#E77D15" p-id="1035"></path><path d="M350.46 550.4c-35.29 0-64-28.71-64-64 0-7.07 5.73-12.8 12.8-12.8s12.8 5.73 12.8 12.8c0 21.18 17.22 38.4 38.4 38.4 21.17 0 38.4-17.22 38.4-38.4 0-7.07 5.73-12.8 12.8-12.8s12.8 5.73 12.8 12.8c0 35.29-28.71 64-64 64z" fill="#25467A" p-id="1036"></path><path d="M222.46 384m-38.4 0a38.4 38.4 0 1 0 76.8 0 38.4 38.4 0 1 0-76.8 0Z" fill="#25467A" p-id="1037"></path><path d="M478.46 384m-38.4 0a38.4 38.4 0 1 0 76.8 0 38.4 38.4 0 1 0-76.8 0Z" fill="#25467A" p-id="1038"></path><path d="M171.26 448h-51.2c-14.14 0-25.6 11.46-25.6 25.6s11.46 25.6 25.6 25.6h51.2c14.14 0 25.6-11.46 25.6-25.6S185.4 448 171.26 448zM580.86 448h-51.2c-14.14 0-25.6 11.46-25.6 25.6s11.46 25.6 25.6 25.6h51.2c14.14 0 25.6-11.46 25.6-25.6S595 448 580.86 448z" fill="#FCCEC7" p-id="1039"></path><path d="M859.18 768m-12.8 0a12.8 12.8 0 1 0 25.6 0 12.8 12.8 0 1 0-25.6 0Z" fill="#D87512" p-id="1040"></path><path d="M910.38 665.6m-12.8 0a12.8 12.8 0 1 0 25.6 0 12.8 12.8 0 1 0-25.6 0Z" fill="#D87512" p-id="1041"></path><path d="M807.98 755.2m-12.8 0a12.8 12.8 0 1 0 25.6 0 12.8 12.8 0 1 0-25.6 0Z" fill="#D87512" p-id="1042"></path><path d="M807.98 806.4m-12.8 0a12.8 12.8 0 1 0 25.6 0 12.8 12.8 0 1 0-25.6 0Z" fill="#D87512" p-id="1043"></path><path d="M769.58 857.6m-12.8 0a12.8 12.8 0 1 0 25.6 0 12.8 12.8 0 1 0-25.6 0Z" fill="#D87512" p-id="1044"></path><path d="M161.58 774.4m-19.2 0a19.2 19.2 0 1 0 38.4 0 19.2 19.2 0 1 0-38.4 0Z" fill="#D87512" p-id="1045"></path><path d="M263.98 812.8m-19.2 0a19.2 19.2 0 1 0 38.4 0 19.2 19.2 0 1 0-38.4 0Z" fill="#D87512" p-id="1046"></path><path d="M199.98 864m-19.2 0a19.2 19.2 0 1 0 38.4 0 19.2 19.2 0 1 0-38.4 0Z" fill="#D87512" p-id="1047"></path><path d="M289.58 902.4m-19.2 0a19.2 19.2 0 1 0 38.4 0 19.2 19.2 0 1 0-38.4 0Z" fill="#D87512" p-id="1048"></path></svg>